<?xml version="1.0" encoding="UTF-8"?>
<svg id="Layer_1" xmlns="http://www.w3.org/2000/svg" version="1.1" viewBox="0 0 1920 1080">
  <!-- Generator: Adobe Illustrator 29.8.1, SVG Export Plug-In . SVG Version: 2.1.1 Build 2)  -->
  <defs>
    <style>
      .st0 {
        stroke: #000;
      }

      .st0, .st1 {
        fill: none;
        stroke-miterlimit: 10;
      }

      .st2 {
        fill: #2b466d;
      }

      .st1 {
        stroke: #c6894a;
        stroke-width: .28px;
      }

      .st3 {
        fill: #5d488a;
      }

      .st4 {
        fill: #74c2b1;
      }

      .st5 {
        fill: #6486ac;
      }

      .st6 {
        fill: #ffd152;
      }

      .st7 {
        fill: #e43e67;
      }

      .st8 {
        fill: #f6955f;
      }
    </style>
  </defs>
  <g>
    <rect class="st0" x="922.91" y="89.97" width="1.43" height="4.36"/>
    <line class="st0" x1="924.34" y1="94.29" x2="922.91" y2="94.29"/>
    <line class="st0" x1="924.34" y1="94.25" x2="922.91" y2="94.25"/>
    <line class="st0" x1="924.34" y1="94.2" x2="922.91" y2="94.2"/>
    <line class="st0" x1="924.34" y1="94.16" x2="922.91" y2="94.16"/>
    <line class="st0" x1="924.34" y1="94.12" x2="922.91" y2="94.12"/>
    <line class="st0" x1="924.34" y1="94.07" x2="922.91" y2="94.07"/>
    <line class="st0" x1="924.34" y1="94.03" x2="922.91" y2="94.03"/>
    <line class="st0" x1="924.34" y1="93.99" x2="922.91" y2="93.99"/>
    <line class="st0" x1="924.34" y1="93.94" x2="922.91" y2="93.94"/>
    <line class="st0" x1="924.34" y1="93.9" x2="922.91" y2="93.9"/>
    <line class="st0" x1="924.34" y1="93.86" x2="922.91" y2="93.86"/>
    <line class="st0" x1="924.34" y1="93.81" x2="922.91" y2="93.81"/>
    <line class="st0" x1="924.34" y1="93.77" x2="922.91" y2="93.77"/>
    <line class="st0" x1="924.34" y1="93.73" x2="922.91" y2="93.73"/>
    <line class="st0" x1="924.34" y1="93.68" x2="922.91" y2="93.68"/>
    <line class="st0" x1="924.34" y1="93.64" x2="922.91" y2="93.64"/>
    <line class="st0" x1="924.34" y1="93.6" x2="922.91" y2="93.6"/>
    <line class="st0" x1="924.34" y1="93.56" x2="922.91" y2="93.56"/>
    <line class="st0" x1="924.34" y1="93.51" x2="922.91" y2="93.51"/>
    <line class="st0" x1="924.34" y1="93.47" x2="922.91" y2="93.47"/>
    <line class="st0" x1="924.34" y1="93.43" x2="922.91" y2="93.43"/>
    <line class="st0" x1="924.34" y1="93.38" x2="922.91" y2="93.38"/>
    <line class="st0" x1="924.34" y1="93.34" x2="922.91" y2="93.34"/>
    <line class="st0" x1="924.34" y1="93.3" x2="922.91" y2="93.3"/>
    <line class="st0" x1="924.34" y1="93.25" x2="922.91" y2="93.25"/>
    <line class="st0" x1="924.34" y1="93.21" x2="922.91" y2="93.21"/>
    <line class="st0" x1="924.34" y1="93.17" x2="922.91" y2="93.17"/>
    <line class="st0" x1="924.34" y1="93.12" x2="922.91" y2="93.12"/>
    <line class="st0" x1="924.34" y1="93.08" x2="922.91" y2="93.08"/>
    <line class="st0" x1="924.34" y1="93.04" x2="922.91" y2="93.04"/>
    <line class="st0" x1="924.34" y1="92.99" x2="922.91" y2="92.99"/>
    <line class="st0" x1="924.34" y1="92.95" x2="922.91" y2="92.95"/>
    <line class="st0" x1="924.34" y1="92.91" x2="922.91" y2="92.91"/>
    <line class="st0" x1="924.34" y1="92.86" x2="922.91" y2="92.86"/>
    <line class="st0" x1="924.34" y1="92.82" x2="922.91" y2="92.82"/>
    <line class="st0" x1="924.34" y1="92.78" x2="922.91" y2="92.78"/>
    <line class="st0" x1="924.34" y1="92.74" x2="922.91" y2="92.74"/>
    <line class="st0" x1="924.34" y1="92.69" x2="922.91" y2="92.69"/>
    <line class="st0" x1="924.34" y1="92.65" x2="922.91" y2="92.65"/>
    <line class="st0" x1="924.34" y1="92.61" x2="922.91" y2="92.61"/>
    <line class="st0" x1="924.34" y1="92.56" x2="922.91" y2="92.56"/>
    <line class="st0" x1="924.34" y1="92.52" x2="922.91" y2="92.52"/>
    <line class="st0" x1="924.34" y1="92.48" x2="922.91" y2="92.48"/>
    <line class="st0" x1="924.34" y1="92.43" x2="922.91" y2="92.43"/>
    <line class="st0" x1="924.34" y1="92.39" x2="922.91" y2="92.39"/>
    <line class="st0" x1="924.34" y1="92.35" x2="922.91" y2="92.35"/>
    <line class="st0" x1="924.34" y1="92.3" x2="922.91" y2="92.3"/>
    <line class="st0" x1="924.34" y1="92.26" x2="922.91" y2="92.26"/>
    <line class="st0" x1="924.34" y1="92.22" x2="922.91" y2="92.22"/>
    <line class="st0" x1="924.34" y1="92.17" x2="922.91" y2="92.17"/>
    <line class="st0" x1="924.34" y1="92.13" x2="922.91" y2="92.13"/>
    <line class="st0" x1="924.34" y1="92.09" x2="922.91" y2="92.09"/>
    <line class="st0" x1="924.34" y1="92.04" x2="922.91" y2="92.04"/>
    <line class="st0" x1="924.34" y1="92" x2="922.91" y2="92"/>
    <line class="st0" x1="924.34" y1="91.96" x2="922.91" y2="91.96"/>
    <line class="st0" x1="924.34" y1="91.91" x2="922.91" y2="91.91"/>
    <line class="st0" x1="924.34" y1="91.87" x2="922.91" y2="91.87"/>
    <line class="st0" x1="924.34" y1="91.83" x2="922.91" y2="91.83"/>
    <line class="st0" x1="924.34" y1="91.79" x2="922.91" y2="91.79"/>
    <line class="st0" x1="924.34" y1="91.74" x2="922.91" y2="91.74"/>
    <line class="st0" x1="924.34" y1="91.7" x2="922.91" y2="91.7"/>
    <line class="st0" x1="924.34" y1="91.66" x2="922.91" y2="91.66"/>
    <line class="st0" x1="924.34" y1="91.61" x2="922.91" y2="91.61"/>
    <line class="st0" x1="924.34" y1="91.57" x2="922.91" y2="91.57"/>
    <line class="st0" x1="924.34" y1="91.53" x2="922.91" y2="91.53"/>
    <line class="st0" x1="924.34" y1="91.48" x2="922.91" y2="91.48"/>
    <line class="st0" x1="924.34" y1="91.44" x2="922.91" y2="91.44"/>
    <line class="st0" x1="924.34" y1="91.4" x2="922.91" y2="91.4"/>
    <line class="st0" x1="924.34" y1="91.35" x2="922.91" y2="91.35"/>
    <line class="st0" x1="924.34" y1="91.31" x2="922.91" y2="91.31"/>
    <line class="st0" x1="924.34" y1="91.27" x2="922.91" y2="91.27"/>
    <line class="st0" x1="924.34" y1="91.22" x2="922.91" y2="91.22"/>
    <line class="st0" x1="924.34" y1="91.18" x2="922.91" y2="91.18"/>
    <line class="st0" x1="924.34" y1="91.14" x2="922.91" y2="91.14"/>
    <line class="st0" x1="924.34" y1="91.09" x2="922.91" y2="91.09"/>
    <line class="st0" x1="924.34" y1="91.05" x2="922.91" y2="91.05"/>
    <line class="st0" x1="924.34" y1="91.01" x2="922.91" y2="91.01"/>
    <line class="st0" x1="924.34" y1="90.97" x2="922.91" y2="90.97"/>
    <line class="st0" x1="924.34" y1="90.92" x2="922.91" y2="90.92"/>
    <line class="st0" x1="924.34" y1="90.88" x2="922.91" y2="90.88"/>
    <line class="st0" x1="924.34" y1="90.84" x2="922.91" y2="90.84"/>
    <line class="st0" x1="924.34" y1="90.79" x2="922.91" y2="90.79"/>
    <line class="st0" x1="924.34" y1="90.75" x2="922.91" y2="90.75"/>
    <line class="st0" x1="924.34" y1="90.71" x2="922.91" y2="90.71"/>
    <line class="st0" x1="924.34" y1="90.66" x2="922.91" y2="90.66"/>
    <line class="st0" x1="924.34" y1="90.62" x2="922.91" y2="90.62"/>
    <line class="st0" x1="924.34" y1="90.58" x2="922.91" y2="90.58"/>
    <line class="st0" x1="924.34" y1="90.53" x2="922.91" y2="90.53"/>
    <line class="st0" x1="924.34" y1="90.49" x2="922.91" y2="90.49"/>
    <line class="st0" x1="924.34" y1="90.45" x2="922.91" y2="90.45"/>
    <line class="st0" x1="924.34" y1="90.4" x2="922.91" y2="90.4"/>
    <line class="st0" x1="924.34" y1="90.36" x2="922.91" y2="90.36"/>
    <line class="st0" x1="924.34" y1="90.32" x2="922.91" y2="90.32"/>
    <line class="st0" x1="924.34" y1="90.27" x2="922.91" y2="90.27"/>
    <line class="st0" x1="924.34" y1="90.23" x2="922.91" y2="90.23"/>
    <line class="st0" x1="924.34" y1="90.19" x2="922.91" y2="90.19"/>
    <line class="st0" x1="924.34" y1="90.15" x2="922.91" y2="90.15"/>
    <line class="st0" x1="924.34" y1="90.1" x2="922.91" y2="90.1"/>
    <line class="st0" x1="924.34" y1="90.06" x2="922.91" y2="90.06"/>
    <line class="st0" x1="924.34" y1="90.02" x2="922.91" y2="90.02"/>
    <line class="st0" x1="922.92" y1="89.97" x2="922.92" y2="94.33"/>
    <line class="st0" x1="922.94" y1="89.97" x2="922.94" y2="94.33"/>
    <line class="st0" x1="922.95" y1="89.97" x2="922.95" y2="94.33"/>
    <line class="st0" x1="922.97" y1="89.97" x2="922.97" y2="94.33"/>
    <line class="st0" x1="922.98" y1="89.97" x2="922.98" y2="94.33"/>
    <line class="st0" x1="923" y1="89.97" x2="923" y2="94.33"/>
    <line class="st0" x1="923.01" y1="89.97" x2="923.01" y2="94.33"/>
    <line class="st0" x1="923.02" y1="89.97" x2="923.02" y2="94.33"/>
    <line class="st0" x1="923.04" y1="89.97" x2="923.04" y2="94.33"/>
    <line class="st0" x1="923.05" y1="89.97" x2="923.05" y2="94.33"/>
    <line class="st0" x1="923.07" y1="89.97" x2="923.07" y2="94.33"/>
    <line class="st0" x1="923.08" y1="89.97" x2="923.08" y2="94.33"/>
    <line class="st0" x1="923.09" y1="89.97" x2="923.09" y2="94.33"/>
    <line class="st0" x1="923.11" y1="89.97" x2="923.11" y2="94.33"/>
    <line class="st0" x1="923.12" y1="89.97" x2="923.12" y2="94.33"/>
    <line class="st0" x1="923.14" y1="89.97" x2="923.14" y2="94.33"/>
    <line class="st0" x1="923.15" y1="89.97" x2="923.15" y2="94.33"/>
    <line class="st0" x1="923.17" y1="89.97" x2="923.17" y2="94.33"/>
    <line class="st0" x1="923.18" y1="89.97" x2="923.18" y2="94.33"/>
    <line class="st0" x1="923.19" y1="89.97" x2="923.19" y2="94.33"/>
    <line class="st0" x1="923.21" y1="89.97" x2="923.21" y2="94.33"/>
    <line class="st0" x1="923.22" y1="89.97" x2="923.22" y2="94.33"/>
    <line class="st0" x1="923.24" y1="89.97" x2="923.24" y2="94.33"/>
    <line class="st0" x1="923.25" y1="89.97" x2="923.25" y2="94.33"/>
    <line class="st0" x1="923.26" y1="89.97" x2="923.26" y2="94.33"/>
    <line class="st0" x1="923.28" y1="89.97" x2="923.28" y2="94.33"/>
    <line class="st0" x1="923.29" y1="89.97" x2="923.29" y2="94.33"/>
    <line class="st0" x1="923.31" y1="89.97" x2="923.31" y2="94.33"/>
    <line class="st0" x1="923.32" y1="89.97" x2="923.32" y2="94.33"/>
    <line class="st0" x1="923.34" y1="89.97" x2="923.34" y2="94.33"/>
    <line class="st0" x1="923.35" y1="89.97" x2="923.35" y2="94.33"/>
    <line class="st0" x1="923.36" y1="89.97" x2="923.36" y2="94.33"/>
    <line class="st0" x1="923.38" y1="89.97" x2="923.38" y2="94.33"/>
    <line class="st0" x1="923.39" y1="89.97" x2="923.39" y2="94.33"/>
    <line class="st0" x1="923.41" y1="89.97" x2="923.41" y2="94.33"/>
    <line class="st0" x1="923.42" y1="89.97" x2="923.42" y2="94.33"/>
    <line class="st0" x1="923.43" y1="89.97" x2="923.43" y2="94.33"/>
    <line class="st0" x1="923.45" y1="89.97" x2="923.45" y2="94.33"/>
    <line class="st0" x1="923.46" y1="89.97" x2="923.46" y2="94.33"/>
    <line class="st0" x1="923.48" y1="89.97" x2="923.48" y2="94.33"/>
    <line class="st0" x1="923.49" y1="89.97" x2="923.49" y2="94.33"/>
    <line class="st0" x1="923.51" y1="89.97" x2="923.51" y2="94.33"/>
    <line class="st0" x1="923.52" y1="89.97" x2="923.52" y2="94.33"/>
    <line class="st0" x1="923.53" y1="89.97" x2="923.53" y2="94.33"/>
    <line class="st0" x1="923.55" y1="89.97" x2="923.55" y2="94.33"/>
    <line class="st0" x1="923.56" y1="89.97" x2="923.56" y2="94.33"/>
    <line class="st0" x1="923.58" y1="89.97" x2="923.58" y2="94.33"/>
    <line class="st0" x1="923.59" y1="89.97" x2="923.59" y2="94.33"/>
    <line class="st0" x1="923.6" y1="89.97" x2="923.6" y2="94.33"/>
    <line class="st0" x1="923.62" y1="89.97" x2="923.62" y2="94.33"/>
    <line class="st0" x1="923.63" y1="89.97" x2="923.63" y2="94.33"/>
    <line class="st0" x1="923.65" y1="89.97" x2="923.65" y2="94.33"/>
    <line class="st0" x1="923.66" y1="89.97" x2="923.66" y2="94.33"/>
    <line class="st0" x1="923.67" y1="89.97" x2="923.67" y2="94.33"/>
    <line class="st0" x1="923.69" y1="89.97" x2="923.69" y2="94.33"/>
    <line class="st0" x1="923.7" y1="89.97" x2="923.7" y2="94.33"/>
    <line class="st0" x1="923.72" y1="89.97" x2="923.72" y2="94.33"/>
    <line class="st0" x1="923.73" y1="89.97" x2="923.73" y2="94.33"/>
    <line class="st0" x1="923.75" y1="89.97" x2="923.75" y2="94.33"/>
    <line class="st0" x1="923.76" y1="89.97" x2="923.76" y2="94.33"/>
    <line class="st0" x1="923.77" y1="89.97" x2="923.77" y2="94.33"/>
    <line class="st0" x1="923.79" y1="89.97" x2="923.79" y2="94.33"/>
    <line class="st0" x1="923.8" y1="89.97" x2="923.8" y2="94.33"/>
    <line class="st0" x1="923.82" y1="89.97" x2="923.82" y2="94.33"/>
    <line class="st0" x1="923.83" y1="89.97" x2="923.83" y2="94.33"/>
    <line class="st0" x1="923.84" y1="89.97" x2="923.84" y2="94.33"/>
    <line class="st0" x1="923.86" y1="89.97" x2="923.86" y2="94.33"/>
    <line class="st0" x1="923.87" y1="89.97" x2="923.87" y2="94.33"/>
    <line class="st0" x1="923.89" y1="89.97" x2="923.89" y2="94.33"/>
    <line class="st0" x1="923.9" y1="89.97" x2="923.9" y2="94.33"/>
    <line class="st0" x1="923.92" y1="89.97" x2="923.92" y2="94.33"/>
    <line class="st0" x1="923.93" y1="89.97" x2="923.93" y2="94.33"/>
    <line class="st0" x1="923.94" y1="89.97" x2="923.94" y2="94.33"/>
    <line class="st0" x1="923.96" y1="89.97" x2="923.96" y2="94.33"/>
    <line class="st0" x1="923.97" y1="89.97" x2="923.97" y2="94.33"/>
    <line class="st0" x1="923.99" y1="89.97" x2="923.99" y2="94.33"/>
    <line class="st0" x1="924" y1="89.97" x2="924" y2="94.33"/>
    <line class="st0" x1="924.01" y1="89.97" x2="924.01" y2="94.33"/>
    <line class="st0" x1="924.03" y1="89.97" x2="924.03" y2="94.33"/>
    <line class="st0" x1="924.04" y1="89.97" x2="924.04" y2="94.33"/>
    <line class="st0" x1="924.06" y1="89.97" x2="924.06" y2="94.33"/>
    <line class="st0" x1="924.07" y1="89.97" x2="924.07" y2="94.33"/>
    <line class="st0" x1="924.09" y1="89.97" x2="924.09" y2="94.33"/>
    <line class="st0" x1="924.1" y1="89.97" x2="924.1" y2="94.33"/>
    <line class="st0" x1="924.11" y1="89.97" x2="924.11" y2="94.33"/>
    <line class="st0" x1="924.13" y1="89.97" x2="924.13" y2="94.33"/>
    <line class="st0" x1="924.14" y1="89.97" x2="924.14" y2="94.33"/>
    <line class="st0" x1="924.16" y1="89.97" x2="924.16" y2="94.33"/>
    <line class="st0" x1="924.17" y1="89.97" x2="924.17" y2="94.33"/>
    <line class="st0" x1="924.18" y1="89.97" x2="924.18" y2="94.33"/>
    <line class="st0" x1="924.2" y1="89.97" x2="924.2" y2="94.33"/>
    <line class="st0" x1="924.21" y1="89.97" x2="924.21" y2="94.33"/>
    <line class="st0" x1="924.23" y1="89.97" x2="924.23" y2="94.33"/>
    <line class="st0" x1="924.24" y1="89.97" x2="924.24" y2="94.33"/>
    <line class="st0" x1="924.26" y1="89.97" x2="924.26" y2="94.33"/>
    <line class="st0" x1="924.27" y1="89.97" x2="924.27" y2="94.33"/>
    <line class="st0" x1="924.28" y1="89.97" x2="924.28" y2="94.33"/>
    <line class="st0" x1="924.3" y1="89.97" x2="924.3" y2="94.33"/>
    <line class="st0" x1="924.31" y1="89.97" x2="924.31" y2="94.33"/>
    <line class="st0" x1="924.33" y1="89.97" x2="924.33" y2="94.33"/>
  </g>
  <g>
    <g>
      <polygon class="st8" points="1259.2 540 1259.2 711 1088.2 711 1259.2 540"/>
      <polygon class="st4" points="1259.2 369 1259.2 540 1088.2 369 1259.2 369"/>
      <rect class="st7" x="1259.2" y="454.51" width="85.49" height="85.49"/>
      <polygon class="st5" points="1344.69 540 1344.69 625.51 1259.2 711 1259.2 625.49 1344.69 540"/>
      <polygon class="st6" points="1344.7 454.5 1344.69 454.51 1259.2 454.51 1259.2 369 1344.7 454.5"/>
      <polygon class="st3" points="1344.7 454.5 1344.69 454.51 1344.69 540 1344.69 625.51 1430.2 540 1344.7 454.5"/>
      <line class="st1" x1="1344.69" y1="625.55" x2="1344.69" y2="625.51"/>
      <polygon class="st2" points="1344.69 540 1259.2 625.49 1259.2 540 1344.69 540"/>
      <line class="st1" x1="1259.2" y1="625.49" x2="1259.17" y2="625.52"/>
    </g>
    <g>
      <path class="st2" d="M489.8,539.74c0-35.75,28.75-64.5,64.5-64.5,29.75,0,54.5,19.75,62,46.75h-34.5c-5.5-9-15.25-15-27.25-15-18.5,0-32.25,14.25-32.25,32.75s13.75,32.75,32.25,32.75c11.5,0,20.5-5.5,26.25-13.75h35.25c-8,26.5-32.5,45.5-61.75,45.5-35.75,0-64.5-28.75-64.5-64.5Z"/>
      <path class="st2" d="M740.05,477.24v65.75c0,42-23,61.25-55,61.25s-55-19.25-55-61.25v-65.75h32.5v65.75c0,20,6.5,29.5,22.5,29.5s22.5-9.5,22.5-29.5v-65.75h32.5Z"/>
      <path class="st2" d="M882.8,539.74c0,35.75-28.75,64.5-64.5,64.5s-64.5-28.75-64.5-64.5,28.75-64.5,64.5-64.5,64.5,28.75,64.5,64.5ZM786.3,539.74c0,18.5,13.75,32.75,32.25,32.75s31.75-14.25,31.75-32.75-13.25-32.75-31.75-32.75-32.25,14.25-32.25,32.75Z"/>
      <path class="st2" d="M896.55,536.49c0-41.25,23-59.75,53.5-59.75h1.5v31.75h-1.25c-14.25,0-21.25,8.5-21.25,28v65.75h-32.5v-65.75Z"/>
      <path class="st2" d="M1023.8,475.24c31,0,64,22,65.25,61.75.25,5.75-.25,11.25-1,15.5h-92.75c3,12.5,14,20,28.5,20,11.75,0,17.5-4,21.5-7.25l38.75.25c-10,22.75-32.75,38.75-59.25,38.75-36,0-64.5-28.75-64.5-64.25s27.5-64.75,63.5-64.75ZM1054.3,526.49c-5-11.75-17-19.5-29.5-19.5-14.5,0-24.5,7.75-29.5,19.5h59Z"/>
    </g>
  </g>
</svg>